<svg  viewBox="0 0 41 43" fill="none" xmlns="http://www.w3.org/2000/svg">
<path fill-rule="evenodd" clip-rule="evenodd" d="M34.7248 38.4949H36.8059H37.8765L37.4942 37.4949L29.7908 17.3476L30.7002 16.9261L38.8106 38.1377L39.3295 39.4949H37.8765H34.7248C32.2237 39.4949 29.985 37.9434 29.1068 35.6016L27.2584 30.6725H14.3156L10.1438 42.145L9.90442 42.8032H9.20399H1.48446H0L0.557718 41.4275L5.81407 28.4619L7.14282 27.8459L1.88986 40.8032L1.48446 41.8032H2.56351H9.20399L13.6151 29.6725H27.9514L30.0431 35.2505C30.775 37.202 32.6406 38.4949 34.7248 38.4949ZM15.5283 23.9589L15.2693 24.71H16.3271H25.2394H26.2972L25.9524 23.71L24.5898 19.7585L23.6778 20.1812L24.8946 23.71H16.6719L16.7874 23.3753L15.5283 23.9589ZM17.7851 20.4817L16.5261 21.0654L20.2544 10.2533L20.7833 8.71953L21.3122 10.2533L23.8671 17.6625L22.9551 18.0853L20.7833 11.7871L17.7851 20.4817ZM29.0012 15.2826L23.5403 1H18.0263L8.35644 24.8523L7.02768 25.4683L17.0996 0.624295L17.3527 0H18.0263H23.5403H24.2285L24.4743 0.642863L29.9107 14.861L29.0012 15.2826Z" fill="white"/>
<path d="M30.157 41.8033H40.0821V41.906C40.0821 42.4583 39.6344 42.906 39.0821 42.906H30.157V41.8033Z" fill="white"/>
</svg>