<svg width="39" height="23" viewBox="0 0 39 23" fill="none" xmlns="http://www.w3.org/2000/svg">
<g filter="url(#filter0_d_4_81)">
<path d="M9.772 17.384C8.988 16.6 8.32533 15.9373 7.784 15.396C7.26133 14.836 6.75733 14.304 6.272 13.8C5.80533 13.296 5.31067 12.7733 4.788 12.232C4.26533 11.6907 3.62133 11.0467 2.856 10.3C2.632 10.076 2.436 9.88934 2.268 9.74C2.1 9.59067 2.02533 9.41334 2.044 9.208C2.08133 8.928 2.19333 8.732 2.38 8.62C2.56667 8.48933 2.744 8.35867 2.912 8.228C3.17333 8.02267 3.49067 7.71467 3.864 7.304C4.256 6.87467 4.66667 6.408 5.096 5.904C5.544 5.4 5.992 4.87733 6.44 4.336C6.90667 3.776 7.336 3.26267 7.728 2.796C8.13867 2.32933 8.49333 1.93733 8.792 1.62C9.10933 1.284 9.34267 1.07867 9.492 1.004C9.64133 0.929335 9.79067 0.920002 9.94 0.976001C10.0893 1.01333 10.2013 1.06 10.276 1.116C10.388 1.20933 10.4813 1.34933 10.556 1.536C10.6493 1.704 10.6213 1.928 10.472 2.208C10.416 2.32 10.304 2.47867 10.136 2.684C9.98667 2.87067 9.80933 3.08534 9.604 3.328C9.41733 3.57067 9.212 3.82267 8.988 4.084C8.78267 4.32667 8.596 4.54133 8.428 4.728C7.77467 5.456 7.09333 6.23067 6.384 7.052C5.69333 7.87333 5.02133 8.63867 4.368 9.348C4.83467 9.83333 5.348 10.3653 5.908 10.944C6.48667 11.5227 7.07467 12.1107 7.672 12.708C8.26933 13.3053 8.85733 13.912 9.436 14.528C10.0147 15.1253 10.556 15.6853 11.06 16.208C11.172 16.3387 11.2467 16.488 11.284 16.656C11.34 16.8053 11.284 16.9733 11.116 17.16C10.892 17.4027 10.6493 17.5427 10.388 17.58C10.1453 17.6173 9.94 17.552 9.772 17.384Z" fill="white"/>
<path d="M14.9855 14.528C14.8921 14.8453 14.7708 15.1347 14.6215 15.396C14.4721 15.6387 14.3135 15.7787 14.1455 15.816C13.7908 15.9093 13.5201 15.8533 13.3335 15.648C13.1468 15.4427 13.0721 15.1813 13.1095 14.864C13.2588 13.744 13.5015 12.568 13.8375 11.336C14.1735 10.0853 14.5655 8.844 15.0135 7.612C15.4615 6.36133 15.9468 5.15733 16.4695 4C17.0108 2.824 17.5615 1.76 18.1215 0.808002C18.2148 0.658668 18.3175 0.574668 18.4295 0.556002C18.5601 0.518669 18.6721 0.518669 18.7655 0.556002C18.8588 0.481335 18.9708 0.416001 19.1015 0.360001C19.2321 0.304001 19.3628 0.276001 19.4935 0.276001C19.5495 0.276001 19.6055 0.285334 19.6615 0.304001C19.7361 0.322667 19.8108 0.378667 19.8855 0.472C19.9601 0.565333 20.0441 0.705334 20.1375 0.892002C20.2495 1.06 20.3801 1.312 20.5295 1.648C20.7908 2.6 21.0895 3.58 21.4255 4.588C21.7801 5.596 22.1441 6.604 22.5175 7.612C22.5735 7.59334 22.6201 7.584 22.6575 7.584C22.7135 7.56533 22.7695 7.54667 22.8255 7.528C23.0308 7.50933 23.2641 7.51867 23.5255 7.556C23.7868 7.59334 23.9641 7.724 24.0575 7.948C24.1695 8.228 24.1508 8.47067 24.0015 8.676C23.8521 8.88134 23.5815 9.08667 23.1895 9.292C23.4321 9.88934 23.6748 10.4773 23.9175 11.056C24.1601 11.616 24.4121 12.1667 24.6735 12.708C24.6921 12.8013 24.7201 12.9507 24.7575 13.156C24.7948 13.3427 24.8135 13.5387 24.8135 13.744C24.8321 13.9307 24.8228 14.108 24.7855 14.276C24.7481 14.444 24.6735 14.556 24.5615 14.612C24.4308 14.668 24.2908 14.6587 24.1415 14.584C24.0108 14.5093 23.8801 14.416 23.7495 14.304C23.6188 14.1733 23.4975 14.0427 23.3855 13.912C23.2921 13.7627 23.2175 13.632 23.1615 13.52C22.8441 12.904 22.5361 12.288 22.2375 11.672C21.9575 11.0373 21.6868 10.4027 21.4255 9.768C20.6415 9.91733 19.7828 10.048 18.8495 10.16C17.9348 10.272 17.0295 10.3467 16.1335 10.384C15.9281 11.0933 15.7228 11.7933 15.5175 12.484C15.3308 13.156 15.1535 13.8373 14.9855 14.528ZM18.9615 2.768C18.1028 4.69067 17.3561 6.61333 16.7215 8.536C17.9721 8.49867 19.3068 8.34 20.7255 8.06C20.0535 6.36133 19.4655 4.59734 18.9615 2.768Z" fill="white"/>
<path d="M28.8164 17.384C28.6484 17.552 28.4337 17.6173 28.1724 17.58C27.9297 17.5427 27.6964 17.4027 27.4724 17.16C27.3044 16.9733 27.239 16.8053 27.2764 16.656C27.3324 16.488 27.4164 16.3387 27.5284 16.208C28.0324 15.6853 28.5737 15.1253 29.1524 14.528C29.731 13.912 30.319 13.3053 30.9164 12.708C31.5137 12.1107 32.0924 11.5227 32.6524 10.944C33.231 10.3653 33.7537 9.83333 34.2204 9.348C33.567 8.63867 32.8857 7.87333 32.1764 7.052C31.4857 6.23067 30.8137 5.456 30.1604 4.728C29.9924 4.54133 29.7964 4.32667 29.5724 4.084C29.367 3.82267 29.1617 3.57067 28.9564 3.328C28.7697 3.08534 28.5924 2.87067 28.4244 2.684C28.275 2.47867 28.1724 2.32 28.1164 2.208C27.967 1.928 27.9297 1.704 28.0044 1.536C28.0977 1.34933 28.2004 1.20933 28.3124 1.116C28.387 1.06 28.499 1.01333 28.6484 0.976001C28.7977 0.920002 28.947 0.929335 29.0964 1.004C29.2457 1.07867 29.4697 1.284 29.7684 1.62C30.0857 1.93733 30.4404 2.32933 30.8324 2.796C31.243 3.26267 31.6724 3.776 32.1204 4.336C32.587 4.87733 33.035 5.4 33.4644 5.904C33.9124 6.408 34.323 6.87467 34.6964 7.304C35.0884 7.71467 35.415 8.02267 35.6764 8.228C35.8444 8.35867 36.0217 8.48933 36.2084 8.62C36.395 8.732 36.507 8.928 36.5444 9.208C36.563 9.41334 36.4884 9.59067 36.3204 9.74C36.1524 9.88934 35.9564 10.076 35.7324 10.3C34.967 11.0467 34.323 11.6907 33.8004 12.232C33.2777 12.7733 32.7737 13.296 32.2884 13.8C31.8217 14.304 31.3177 14.836 30.7764 15.396C30.2537 15.9373 29.6004 16.6 28.8164 17.384Z" fill="white"/>
</g>
<defs>
<filter id="filter0_d_4_81" x="0.0411987" y="0.276001" width="38.506" height="22.3142" filterUnits="userSpaceOnUse" color-interpolation-filters="sRGB">
<feFlood flood-opacity="0" result="BackgroundImageFix"/>
<feColorMatrix in="SourceAlpha" type="matrix" values="0 0 0 0 0 0 0 0 0 0 0 0 0 0 0 0 0 0 127 0" result="hardAlpha"/>
<feOffset dy="3"/>
<feGaussianBlur stdDeviation="1"/>
<feComposite in2="hardAlpha" operator="out"/>
<feColorMatrix type="matrix" values="0 0 0 0 1 0 0 0 0 1 0 0 0 0 1 0 0 0 0.25 0"/>
<feBlend mode="normal" in2="BackgroundImageFix" result="effect1_dropShadow_4_81"/>
<feBlend mode="normal" in="SourceGraphic" in2="effect1_dropShadow_4_81" result="shape"/>
</filter>
</defs>
</svg>
