<svg width="40" height="40" viewBox="0 0 40 40" fill="none" xmlns="http://www.w3.org/2000/svg">
<g filter="url(#filter0_b_5_715)">
<circle cx="20" cy="20" r="20" fill="white" fill-opacity="0.2"/>
</g>
<path d="M13.1721 16.6118H19.7306C19.9617 16.6118 20.1572 16.5296 20.3172 16.3652C20.4771 16.2008 20.5571 16.0031 20.5571 15.772C20.5571 15.541 20.4771 15.3455 20.3172 15.1855C20.1572 15.0255 19.9617 14.9455 19.7306 14.9455H13.1721C12.9322 14.9455 12.7345 15.0255 12.579 15.1855C12.4234 15.3455 12.3457 15.541 12.3457 15.772C12.3457 16.0031 12.4234 16.2008 12.579 16.3652C12.7345 16.5296 12.9322 16.6118 13.1721 16.6118ZM13.1721 19.4778H17.9577C18.1888 19.4778 18.3865 19.3978 18.5509 19.2379C18.7153 19.0779 18.7975 18.8824 18.7975 18.6514C18.7975 18.4203 18.7153 18.2225 18.5509 18.0581C18.3865 17.8937 18.1888 17.8115 17.9577 17.8115H13.1721C12.9322 17.8115 12.7345 17.8937 12.579 18.0581C12.4234 18.2225 12.3457 18.4203 12.3457 18.6514C12.3457 18.8824 12.4234 19.0779 12.579 19.2379C12.7345 19.3978 12.9322 19.4778 13.1721 19.4778ZM25.8759 19.6378C26.5691 19.6378 27.1578 19.3934 27.6422 18.9046C28.1265 18.4159 28.3687 17.8249 28.3687 17.1317C28.3687 16.4385 28.1265 15.8476 27.6422 15.3588C27.1578 14.87 26.5691 14.6256 25.8759 14.6256C25.1827 14.6256 24.5917 14.87 24.103 15.3588C23.6142 15.8476 23.3698 16.4385 23.3698 17.1317C23.3698 17.8249 23.6142 18.4159 24.103 18.9046C24.5917 19.3934 25.1827 19.6378 25.8759 19.6378ZM11.3992 29.4355H29.3284C30.4748 29.4355 31.328 29.1556 31.8878 28.5957C32.4477 28.0359 32.7277 27.196 32.7277 26.0763V13.3592C32.7277 12.2395 32.4477 11.3997 31.8878 10.8398C31.328 10.2799 30.4748 10 29.3284 10H11.3992C10.2706 10 9.42189 10.2799 8.85313 10.8398C8.28438 11.3997 8 12.2395 8 13.3592V26.0763C8 27.196 8.28438 28.0359 8.85313 28.5957C9.42189 29.1556 10.2706 29.4355 11.3992 29.4355ZM11.4259 27.5026C10.946 27.5026 10.575 27.3738 10.3128 27.1161C10.0506 26.8584 9.91957 26.4807 9.91957 25.983V13.4525C9.91957 12.946 10.0506 12.5661 10.3128 12.3128C10.575 12.0595 10.946 11.9329 11.4259 11.9329H29.3018C29.7817 11.9329 30.1527 12.0595 30.4148 12.3128C30.677 12.5661 30.8081 12.946 30.8081 13.4525V25.983C30.8081 26.4807 30.677 26.8584 30.4148 27.1161C30.1527 27.3738 29.7817 27.5026 29.3018 27.5026H11.4259Z" fill="white"/>
<defs>
<filter id="filter0_b_5_715" x="-40" y="-40" width="120" height="120" filterUnits="userSpaceOnUse" color-interpolation-filters="sRGB">
<feFlood flood-opacity="0" result="BackgroundImageFix"/>
<feGaussianBlur in="BackgroundImage" stdDeviation="20"/>
<feComposite in2="SourceAlpha" operator="in" result="effect1_backgroundBlur_5_715"/>
<feBlend mode="normal" in="SourceGraphic" in2="effect1_backgroundBlur_5_715" result="shape"/>
</filter>
</defs>
</svg>
