<svg width="40" height="40" viewBox="0 0 40 40" fill="none" xmlns="http://www.w3.org/2000/svg">
<g filter="url(#filter0_b_25_441)">
<circle cx="20" cy="20" r="20" fill="white" fill-opacity="0.2"/>
</g>
<path fill-rule="evenodd" clip-rule="evenodd" d="M19.9989 7.99998C13.3725 7.99998 8 13.3725 8 20.0003C8 25.3022 11.438 29.7995 16.2065 31.3871C16.8069 31.4968 17.0257 31.1263 17.0257 30.808C17.0257 30.5237 17.0154 29.7686 17.0095 28.7675C13.6716 29.4923 12.9674 27.1586 12.9674 27.1586C12.4215 25.7722 11.6347 25.4031 11.6347 25.4031C10.5452 24.659 11.7172 24.6738 11.7172 24.6738C12.9217 24.7585 13.5552 25.9107 13.5552 25.9107C14.6256 27.7442 16.3642 27.2146 17.0478 26.9074C17.1568 26.1324 17.4662 25.6035 17.8095 25.3036C15.145 25.0009 12.3434 23.971 12.3434 19.3727C12.3434 18.0629 12.8112 16.9918 13.5788 16.1527C13.455 15.8492 13.0432 14.6293 13.6959 12.9769C13.6959 12.9769 14.7037 12.6543 16.9962 14.2072C17.9532 13.9405 18.9801 13.8079 20.0004 13.8035C21.0192 13.8079 22.0461 13.9405 23.0045 14.2072C25.2956 12.6543 26.3011 12.9769 26.3011 12.9769C26.956 14.6293 26.5442 15.8492 26.4205 16.1527C27.1895 16.9918 27.6544 18.0629 27.6544 19.3727C27.6544 23.9828 24.8484 24.9972 22.175 25.2941C22.606 25.6646 22.9898 26.3969 22.9898 27.5166C22.9898 29.1203 22.975 30.4147 22.975 30.808C22.975 31.1292 23.1909 31.5027 23.8001 31.3856C28.5649 29.7951 32 25.3007 32 20.0003C32 13.3725 26.6267 7.99998 19.9989 7.99998Z" fill="white"/>
<defs>
<filter id="filter0_b_25_441" x="-40" y="-40" width="120" height="120" filterUnits="userSpaceOnUse" color-interpolation-filters="sRGB">
<feFlood flood-opacity="0" result="BackgroundImageFix"/>
<feGaussianBlur in="BackgroundImage" stdDeviation="20"/>
<feComposite in2="SourceAlpha" operator="in" result="effect1_backgroundBlur_25_441"/>
<feBlend mode="normal" in="SourceGraphic" in2="effect1_backgroundBlur_25_441" result="shape"/>
</filter>
</defs>
</svg>
