<svg width="40" height="40" viewBox="0 0 40 40" fill="none" xmlns="http://www.w3.org/2000/svg">
<g filter="url(#filter0_b_25_446)">
<circle cx="20" cy="20" r="20" fill="white" fill-opacity="0.2"/>
</g>
<path d="M20 10.1609C23.2063 10.1609 23.5859 10.175 24.8469 10.2312C26.0188 10.2828 26.6516 10.4797 27.0734 10.6438C27.6313 10.8594 28.0344 11.1219 28.4516 11.5391C28.8734 11.9609 29.1313 12.3594 29.3469 12.9172C29.5109 13.3391 29.7078 13.9766 29.7594 15.1437C29.8156 16.4094 29.8297 16.7891 29.8297 19.9906C29.8297 23.1969 29.8156 23.5766 29.7594 24.8375C29.7078 26.0094 29.5109 26.6422 29.3469 27.0641C29.1313 27.6219 28.8688 28.025 28.4516 28.4422C28.0297 28.8641 27.6313 29.1219 27.0734 29.3375C26.6516 29.5016 26.0141 29.6984 24.8469 29.75C23.5813 29.8063 23.2016 29.8203 20 29.8203C16.7938 29.8203 16.4141 29.8063 15.1531 29.75C13.9813 29.6984 13.3484 29.5016 12.9266 29.3375C12.3688 29.1219 11.9656 28.8594 11.5484 28.4422C11.1266 28.0203 10.8688 27.6219 10.6531 27.0641C10.4891 26.6422 10.2922 26.0047 10.2406 24.8375C10.1844 23.5719 10.1703 23.1922 10.1703 19.9906C10.1703 16.7844 10.1844 16.4047 10.2406 15.1437C10.2922 13.9719 10.4891 13.3391 10.6531 12.9172C10.8688 12.3594 11.1313 11.9562 11.5484 11.5391C11.9703 11.1172 12.3688 10.8594 12.9266 10.6438C13.3484 10.4797 13.9859 10.2828 15.1531 10.2312C16.4141 10.175 16.7938 10.1609 20 10.1609ZM20 8C16.7422 8 16.3344 8.01406 15.0547 8.07031C13.7797 8.12656 12.9031 8.33281 12.1438 8.62812C11.3516 8.9375 10.6813 9.34531 10.0156 10.0156C9.34531 10.6812 8.9375 11.3516 8.62813 12.1391C8.33281 12.9031 8.12656 13.775 8.07031 15.05C8.01406 16.3344 8 16.7422 8 20C8 23.2578 8.01406 23.6656 8.07031 24.9453C8.12656 26.2203 8.33281 27.0969 8.62813 27.8563C8.9375 28.6484 9.34531 29.3188 10.0156 29.9844C10.6813 30.65 11.3516 31.0625 12.1391 31.3672C12.9031 31.6625 13.775 31.8687 15.05 31.925C16.3297 31.9812 16.7375 31.9953 19.9953 31.9953C23.2531 31.9953 23.6609 31.9812 24.9406 31.925C26.2156 31.8687 27.0922 31.6625 27.8516 31.3672C28.6391 31.0625 29.3094 30.65 29.975 29.9844C30.6406 29.3188 31.0531 28.6484 31.3578 27.8609C31.6531 27.0969 31.8594 26.225 31.9156 24.95C31.9719 23.6703 31.9859 23.2625 31.9859 20.0047C31.9859 16.7469 31.9719 16.3391 31.9156 15.0594C31.8594 13.7844 31.6531 12.9078 31.3578 12.1484C31.0625 11.3516 30.6547 10.6812 29.9844 10.0156C29.3188 9.35 28.6484 8.9375 27.8609 8.63281C27.0969 8.3375 26.225 8.13125 24.95 8.075C23.6656 8.01406 23.2578 8 20 8Z" fill="white"/>
<path d="M20 13.8359C16.5969 13.8359 13.8359 16.5969 13.8359 20C13.8359 23.4031 16.5969 26.1641 20 26.1641C23.4031 26.1641 26.1641 23.4031 26.1641 20C26.1641 16.5969 23.4031 13.8359 20 13.8359ZM20 23.9984C17.7922 23.9984 16.0016 22.2078 16.0016 20C16.0016 17.7922 17.7922 16.0016 20 16.0016C22.2078 16.0016 23.9984 17.7922 23.9984 20C23.9984 22.2078 22.2078 23.9984 20 23.9984Z" fill="white"/>
<path d="M27.8469 13.5921C27.8469 14.389 27.2 15.0312 26.4078 15.0312C25.6109 15.0312 24.9688 14.3843 24.9688 13.5921C24.9688 12.7953 25.6156 12.1531 26.4078 12.1531C27.2 12.1531 27.8469 12.8 27.8469 13.5921Z" fill="white"/>
<defs>
<filter id="filter0_b_25_446" x="-40" y="-40" width="120" height="120" filterUnits="userSpaceOnUse" color-interpolation-filters="sRGB">
<feFlood flood-opacity="0" result="BackgroundImageFix"/>
<feGaussianBlur in="BackgroundImage" stdDeviation="20"/>
<feComposite in2="SourceAlpha" operator="in" result="effect1_backgroundBlur_25_446"/>
<feBlend mode="normal" in="SourceGraphic" in2="effect1_backgroundBlur_25_446" result="shape"/>
</filter>
</defs>
</svg>
